<svg xmlns="http://www.w3.org/2000/svg" width="78.209" height="73.08" viewBox="0 0 78.209 73.08">
    <path data-name="Union 12" d="M1.465 72.58A1.4 1.4 0 0 1 0 71.259V67.3a1.4 1.4 0 0 1 1.465-1.32h9v-2.639a1.322 1.322 0 0 1 1.32-1.32h1.319V32.99h-2.64a1.32 1.32 0 0 1-1.319-1.319v-5.28H1.323A1.319 1.319 0 0 1 .711 23.9L38.228 4.278a1.315 1.315 0 0 1 1.223 0L76.968 23.9a1.319 1.319 0 0 1-.611 2.488h-7.828v5.28a1.32 1.32 0 0 1-1.319 1.322h-2.639v29.031h1.32a1.319 1.319 0 0 1 1.319 1.32v2.639h9a1.4 1.4 0 0 1 1.468 1.32v3.96a1.4 1.4 0 0 1-1.464 1.321zm1.467-2.64h71.815v-1.32H2.933zm10.173-3.96h51.466v-1.32H13.106zm44.868-3.959h3.959v-27.71h-3.958zm-2.64 0V32.99h-1.32a1.321 1.321 0 0 1-1.319-1.319v-5.28h-27.71v5.28a1.32 1.32 0 0 1-1.319 1.319h-1.32v29.031h15.107v-2.129a12.215 12.215 0 0 1-1.293.071 9.08 9.08 0 0 1-5.5-1.728 11.063 11.063 0 0 1-3.738-5.309 12.947 12.947 0 0 1-.378-1.29 7.436 7.436 0 0 1-.104-.524 1.315 1.315 0 0 1 .574-1.326 8.5 8.5 0 0 1 9.443-.27c.355.206.69.424 1 .648v-1.423a11.217 11.217 0 1 1 2.776 0v1.705a12.3 12.3 0 0 1 1.381-.93 8.495 8.495 0 0 1 9.442.27 1.318 1.318 0 0 1 .575 1.326c0 .031-.012.075-.022.131a7.706 7.706 0 0 1-.084.393 12.856 12.856 0 0 1-.376 1.29 11.064 11.064 0 0 1-3.748 5.309 9.08 9.08 0 0 1-5.5 1.728 12.394 12.394 0 0 1-1.673-.117v2.175zm-39.588 0h3.959v-27.71h-3.958zM29.24 51.533a8.537 8.537 0 0 0 3.295 4.793 7.173 7.173 0 0 0 4.917.908v-3.588a10.722 10.722 0 0 0-2.385-1.88 6.532 6.532 0 0 0-2.989-.9h-.173a5.845 5.845 0 0 0-2.665.667zm16.284 4.793a8.547 8.547 0 0 0 3.295-4.793 5.848 5.848 0 0 0-2.666-.672h-.212a6.549 6.549 0 0 0-3.014.938 11.084 11.084 0 0 0-2.7 2.258v3.116a7.364 7.364 0 0 0 5.296-.847zM30.261 37.61a8.577 8.577 0 1 0 8.579-8.579 8.587 8.587 0 0 0-8.579 8.579zm25.073-7.258h10.557v-3.96H55.334zm-43.547 0h10.557v-3.96H11.787zm-5.095-6.6h64.295L38.84 6.938zm63.157 37.609a1.98 1.98 0 1 1 1.981 1.98 1.979 1.979 0 0 1-1.981-1.98zm-67.3-4.616A3.958 3.958 0 1 1 6.508 60.7a3.958 3.958 0 0 1-3.957-3.955zm2.639 0a1.319 1.319 0 1 0 1.318-1.32 1.321 1.321 0 0 0-1.316 1.32zm44.868-12.538a1.979 1.979 0 1 1 1.978 1.98 1.98 1.98 0 0 1-1.978-1.98zm-25.072 0a1.979 1.979 0 1 1 1.98 1.98 1.98 1.98 0 0 1-1.98-1.98zm13.13 0 .042-1.846a4.783 4.783 0 0 1-2.8-1.2l1.17-1.578A3.809 3.809 0 0 0 39 40.626c.8 0 1.2-.366 1.2-.875 0-.563-.451-.8-1.537-1.3l-.845-.381c-1.467-.649-2.071-1.521-2.071-2.65a2.882 2.882 0 0 1 2.593-2.8l-.057-1.8H40l-.044 1.8a3.328 3.328 0 0 1 2.1 1.085l-1.228 1.452a2.61 2.61 0 0 0-1.832-.8c-.732 0-1.114.38-1.114.9 0 .579.522.888 1.409 1.3l.69.309c1.608.734 2.343 1.327 2.343 2.664a2.83 2.83 0 0 1-2.54 2.765l.043 1.916zm-34.243-2.64a1.979 1.979 0 1 1 1.979 1.979 1.981 1.981 0 0 1-1.979-1.979zm67.3-2.64a1.98 1.98 0 1 1 1.979 1.98 1.98 1.98 0 0 1-1.981-1.98zm-67.3-28.37a5.278 5.278 0 1 1 5.276 5.28 5.279 5.279 0 0 1-5.276-5.28zm2.639 0a2.638 2.638 0 1 0 2.637-2.64 2.641 2.641 0 0 0-2.637 2.64zM72.489 13.2a1.32 1.32 0 1 1 1.319 1.319 1.32 1.32 0 0 1-1.319-1.319zM61.933 5.277a5.278 5.278 0 1 1 5.277 5.279 5.277 5.277 0 0 1-5.277-5.279zm2.638 0a2.639 2.639 0 1 0 2.639-2.639 2.643 2.643 0 0 0-2.639 2.639zM51.375 3.3a1.979 1.979 0 1 1 1.979 1.979A1.98 1.98 0 0 1 51.375 3.3zM22.344 1.319a1.32 1.32 0 1 1 1.32 1.319 1.319 1.319 0 0 1-1.32-1.319z" transform="translate(.265 .25)" style="fill:#4380fa;stroke:#fff;stroke-width:.5px"/>
</svg>
