<svg xmlns="http://www.w3.org/2000/svg" width="72.001" height="72.711" viewBox="0 0 72.001 72.711">
    <path data-name="Union 13" d="M20.5 67.263a19.532 19.532 0 0 1-4.8-9.863 23.067 23.067 0 0 1-.429-5.272 1.309 1.309 0 0 1 1.303-1.228h.084a1.3 1.3 0 0 1 1.222 1.384 20.993 20.993 0 0 0 .4 4.7 17.107 17.107 0 0 0 4.131 8.5C25.34 68.547 29.6 70.1 35.063 70.1h.322a1.3 1.3 0 0 1 .013 2.609h-.337c-6.223.002-11.119-1.83-14.561-5.446zm37.1-.046a1.963 1.963 0 1 1 1.962 1.956 1.961 1.961 0 0 1-1.962-1.956zm-12.665.65v-6.526a13.1 13.1 0 0 1-23.625-7.748q0-.539.043-1.067V39.249a1.311 1.311 0 0 1 2.621 0V45.7a13.088 13.088 0 0 1 9.131-5.1v-8.82a37.92 37.92 0 0 1-4.769.316 23.747 23.747 0 0 1-9.376-1.728 17.085 17.085 0 0 1-8.235-7.349A26.313 26.313 0 0 1 7.6 12.129a33.368 33.368 0 0 1-.074-3.871c.021-.5.049-.891.071-1.13a1.694 1.694 0 0 1 .33-1.1l.285-.349.438-.1a23.156 23.156 0 0 1 11.594.247 24.7 24.7 0 0 1 8.394 4.364 30.515 30.515 0 0 1 4.465 4.32V3.376a1.309 1.309 0 0 1 2.617 0v11.136a30.553 30.553 0 0 1 4.468-4.321 24.693 24.693 0 0 1 8.392-4.364 23.153 23.153 0 0 1 11.593-.247l.438.1.286.349a1.7 1.7 0 0 1 .332 1.1c.02.239.048.628.068 1.13a33.147 33.147 0 0 1-.074 3.871A26.3 26.3 0 0 1 58.1 23.021a17.1 17.1 0 0 1-8.233 7.349 23.762 23.762 0 0 1-9.375 1.73 37.768 37.768 0 0 1-4.769-.317v2.157c5.6.1 10.024 1.823 13.165 5.123 5.4 5.677 4.944 13.9 4.924 14.242a1.308 1.308 0 0 1-1.306 1.223h-.084a1.309 1.309 0 0 1-1.222-1.385 19.281 19.281 0 0 0-.376-4.385 15.919 15.919 0 0 0-3.847-7.911c-2.629-2.754-6.411-4.2-11.252-4.3v4.057a13.069 13.069 0 0 1 11.764 12.652 1.314 1.314 0 0 1 .065.408v14.2a1.309 1.309 0 0 1-2.618 0zM23.93 53.593a10.44 10.44 0 1 0 .046-.979v.025a1.324 1.324 0 0 1-.021.234q-.026.356-.025.72zM10.167 7.935a30.245 30.245 0 0 0 .258 5.911 23.653 23.653 0 0 0 1.564 5.833 16.076 16.076 0 0 0 3.595 5.385c3.653 3.536 9.073 4.96 16.14 4.249l-9.96-9.446a1.307 1.307 0 1 1 1.8-1.892l9.539 9.049v-8.118a27.551 27.551 0 0 0-6.153-6.717 22.018 22.018 0 0 0-7.48-3.869 19.716 19.716 0 0 0-5.407-.747 21.59 21.59 0 0 0-3.896.362zm43.079 17.128a16.083 16.083 0 0 0 3.6-5.385 23.782 23.782 0 0 0 1.562-5.833 30.088 30.088 0 0 0 .258-5.911 20.339 20.339 0 0 0-9.3.386 22.018 22.018 0 0 0-7.48 3.869 27.569 27.569 0 0 0-6.154 6.719v8.88l10.346-9.813a1.308 1.308 0 1 1 1.807 1.892l-10.03 9.513c6.698.539 11.869-.906 15.391-4.317zM5.238 65.912A1.963 1.963 0 1 1 7.2 67.867a1.961 1.961 0 0 1-1.962-1.955zm30.613-4.275H34.27l.057-2.379-.3-.03a5.99 5.99 0 0 1-3.261-1.29L31.9 56.4a5.239 5.239 0 0 0 3.2 1.214c1.4 0 1.9-.755 1.9-1.465 0-.992-.878-1.389-2.205-1.991l-1.109-.5c-1.722-.758-2.521-1.758-2.521-3.158a3.1 3.1 0 0 1 .883-2.22 4.149 4.149 0 0 1 2.242-1.12l.275-.052-.071-2.3h1.579l-.056 2.3.283.048a4.33 4.33 0 0 1 2.367 1.1l-1.2 1.419a3.671 3.671 0 0 0-2.368-.908c-1.084 0-1.786.59-1.786 1.5 0 .978.883 1.46 2.039 1.992l.9.4c2.228 1.012 2.873 1.727 2.873 3.18a3.36 3.36 0 0 1-3.06 3.283l-.271.054.057 2.445zM58.91 50.251a1.963 1.963 0 1 1 1.965 1.955 1.959 1.959 0 0 1-1.965-1.955zm1.31 0a.654.654 0 1 0 .655-.654.654.654 0 0 0-.655.654zM0 44.378A5.237 5.237 0 1 1 5.238 49.6 5.229 5.229 0 0 1 0 44.378zm2.62 0a2.618 2.618 0 1 0 2.618-2.612 2.617 2.617 0 0 0-2.618 2.612zm57.6-7.178a5.891 5.891 0 1 1 5.891 5.87 5.88 5.88 0 0 1-5.891-5.87zm2.617 0a3.273 3.273 0 1 0 3.273-3.264 3.272 3.272 0 0 0-3.273 3.264zm-51.055 1.3a1.964 1.964 0 1 1 1.965 1.956 1.961 1.961 0 0 1-1.965-1.956zM1.312 22.84a1.963 1.963 0 1 1 1.961 1.96 1.958 1.958 0 0 1-1.961-1.96zm64.142-2.61a1.965 1.965 0 1 1 1.966 1.959 1.961 1.961 0 0 1-1.966-1.959zm1.313 0a.654.654 0 1 0 .653-.651.653.653 0 0 0-.653.651zm-17.021-4.568a1.309 1.309 0 1 1 1.31 1.3 1.308 1.308 0 0 1-1.31-1.3zM24.874 1.306a1.31 1.31 0 1 1 1.308 1.3 1.308 1.308 0 0 1-1.308-1.3z" style="fill:#4380fa"/>
</svg>
