<svg xmlns="http://www.w3.org/2000/svg" width="74.927" height="74" viewBox="0 0 74.927 74">
    <path data-name="Union 11" d="M35.81 67.134A5.844 5.844 0 1 1 41.655 73a5.855 5.855 0 0 1-5.845-5.866zm1.3 0a4.545 4.545 0 1 0 4.546-4.563 4.559 4.559 0 0 0-4.547 4.563zm18.183 3.259a1.3 1.3 0 1 1 1.3 1.3 1.3 1.3 0 0 1-1.301-1.3zM8.8 65.621.193 39.015a3.913 3.913 0 0 1 2.5-4.927l10.313-3.363 9.361-17.712a5.848 5.848 0 1 1 9.381-3.148l22.4 7.443 6.042-1.97a3.893 3.893 0 0 1 4.91 2.51l8.613 26.606a3.914 3.914 0 0 1-2.5 4.928l-57.5 18.752A3.887 3.887 0 0 1 8.8 65.621zm1.236-.4a2.6 2.6 0 0 0 3.272 1.674l57.5-18.751a2.612 2.612 0 0 0 1.668-3.286l-7.053-21.794L2.874 43.08zm50.556-48.645L3.1 35.327a2.613 2.613 0 0 0-1.668 3.286l1.04 3.227 62.55-20.016-1.157-3.574a2.6 2.6 0 0 0-2.473-1.8 2.575 2.575 0 0 0-.8.126zM14.783 30.145l37.279-12.157-20.76-6.9a5.837 5.837 0 0 1-7.839 2.636zm6.74-21.672a4.546 4.546 0 1 0 4.546-4.562 4.559 4.559 0 0 0-4.545 4.562zM2.042 64.526a1.949 1.949 0 1 1 1.949 1.955 1.953 1.953 0 0 1-1.949-1.955zm61.042-7.169a1.3 1.3 0 1 1 1.3 1.3 1.3 1.3 0 0 1-1.3-1.3zm-45.307-2.419 1.074-1.548a4.094 4.094 0 0 0 3.94.928c1.293-.42 1.946-1.389 1.6-2.454-.291-.894-.947-1.1-2.457-1.283l-1.6-.2c-2.1-.243-3.516-.855-4.06-2.529-.668-2.054.681-3.985 2.849-4.69a4.849 4.849 0 0 1 4.781.928l-1.054 1.545a3.29 3.29 0 0 0-3.138-.662c-1.066.346-1.729 1.15-1.408 2.139.4.965.89.994 2.33 1.22l1.618.189c2.338.271 3.63.945 4.167 2.6.711 2.187-.608 4.214-3.023 5a5.965 5.965 0 0 1-1.848.3 5.571 5.571 0 0 1-3.771-1.483zM30.252 39.55l.685-.223 9.682 10.965-2.168.7-1.574-1.8-5.65 1.838-.214 2.382-2.149.7zm1.136 9.515 4.2-1.366-3.78-4.513zm7.15-11.975 2.016-.655 3.492 10.747 5.745-1.867.587 1.807-7.761 2.521zm9.8-3.183 8.255-2.682.588 1.807-6.239 2.027 1.044 3.215 4.7-1.526.569 1.75-4.7 1.526L53.841 44l6.467-2.1.587 1.807-8.483 2.753zM4.64 20.2a1.948 1.948 0 1 1 1.948 1.96A1.952 1.952 0 0 1 4.64 20.2zm62.34-9.772a1.3 1.3 0 1 1 1.3 1.3 1.3 1.3 0 0 1-1.3-1.3zM50.1 6.518a3.9 3.9 0 1 1 3.9 3.91 3.9 3.9 0 0 1-3.9-3.91zm1.3 0A2.6 2.6 0 1 0 54 3.911a2.606 2.606 0 0 0-2.605 2.607zM39.706 3.911a1.3 1.3 0 1 1 1.3 1.3 1.3 1.3 0 0 1-1.3-1.3zM8.536 1.3a1.3 1.3 0 1 1 1.3 1.3 1.3 1.3 0 0 1-1.3-1.3z" transform="translate(.511 .5)" style="fill:#4380fa;stroke:#4380fa"/>
</svg>
