<svg xmlns="http://www.w3.org/2000/svg" width="75.975" height="80.41" viewBox="0 0 75.975 80.41">
    <defs>
        <style>
            .cls-1,.cls-2{fill:#4380fa;stroke:#4380fa}.cls-2{stroke-linecap:round}
        </style>
    </defs>
    <g id="Group_304" data-name="Group 304" transform="translate(.547 .474)">
        <g id="Group_163" data-name="Group 163" transform="translate(0 62.654)">
            <path id="Path_317" data-name="Path 317" class="cls-1" d="m3922.041-6106.854-.155-1.573a19.991 19.991 0 0 0 2.666-.446v-.075h.311c5.633-1.424 10.108-5.056 14.125-8.317a48.322 48.322 0 0 1 6.84-4.952 8.746 8.746 0 0 1 7.777-.786 9.664 9.664 0 0 1 3.471 2.563c3.036-.625 7.315 1.115 12.727 5.178a73.317 73.317 0 0 1 7.524 6.553l1.315 1.344h-53.576a22.067 22.067 0 0 1-3.025.511zm7.5-2.095h45.267a72.464 72.464 0 0 0-5.974-5.062c-5.2-3.9-9.276-5.559-11.79-4.795l-.2.061-.2-.045a1.171 1.171 0 0 1-.649-.481 8.182 8.182 0 0 0-3-2.271 7.248 7.248 0 0 0-6.417.71 47.364 47.364 0 0 0-6.6 4.794 50.8 50.8 0 0 1-10.433 7.089z" transform="translate(-3921.885 6123.59)"/>
            <path id="Path_318" data-name="Path 318" class="cls-1" d="M3979.918-6108.98h-19.67l-9.489-7.979a.876.876 0 0 1-.58-.772.876.876 0 0 1 .67-.878c1.809-.88 4.876-1.462 8.917-2.062a13.8 13.8 0 0 1 2.008-.148 15.946 15.946 0 0 1 6.917 1.682 25.1 25.1 0 0 1 5.446 3.64 32.07 32.07 0 0 1 4.908 5.274zm-19.093-1.581h15.952a32.3 32.3 0 0 0-3.7-3.765c-2.609-2.242-6.688-4.914-11.3-4.914a12.118 12.118 0 0 0-1.775.131 45.77 45.77 0 0 0-7.513 1.536z" transform="translate(-3905.451 6125.2)"/>
        </g>
        <path id="Path_317-2" data-name="Path 317" class="cls-1" d="M3946.858-6098.672h-1.581v-33.628a27.381 27.381 0 0 1-.6-11.206 19.63 19.63 0 0 1 4.016-9.267 22.666 22.666 0 0 1 11.1-7.162l.8-.207a44.307 44.307 0 0 1 2.955 7.933 18.391 18.391 0 0 1-.74 12.027c-2.384 5.3-7.75 9.06-15.952 11.19zm12.777-59.548a20.791 20.791 0 0 0-9.687 6.408 18.048 18.048 0 0 0-3.7 8.5 26.072 26.072 0 0 0 .575 10.656l.035.113v1.908c7.49-2.02 12.37-5.451 14.51-10.205a16.856 16.856 0 0 0 .644-11.011 29.2 29.2 0 0 0-2.377-6.369z" transform="translate(-3908.834 6165.013)"/>
        <path id="Union_7" data-name="Union 7" class="cls-2" d="M15.342 18.448 6.4 9.559H1.249a.791.791 0 0 1 0-1.581h3.566L.233 3.419A.789.789 0 1 1 1.347 2.3l3.021 3V.79a.79.79 0 0 1 1.581 0v6.087l1.175 1.168a.8.8 0 0 1 .4.4l8.932 8.884a.792.792 0 0 1 0 1.118.8.8 0 0 1-.561.233.786.786 0 0 1-.553-.232z" transform="translate(21.334 36.704)"/>
        <path id="Path_317-3" data-name="Path 317" class="cls-1" d="M3946.746-6122.735h-.025a19.539 19.539 0 0 1-10.426-2.893c-5.3-3.368-8.712-9.46-10.148-18.106v-.011l-.076-.5.421-.281c.094-.062.313-.207 2.226-.421a36.473 36.473 0 0 1 4.631-.212c3.379.059 8.241.639 12.22 3.07a14.254 14.254 0 0 1 5.708 6.457 21.986 21.986 0 0 1 1.318 11.454l-1.153-.131.28 1a20.053 20.053 0 0 1-4.976.574zm-18.907-20.5c1.426 7.782 4.554 13.255 9.3 16.273 5.942 3.778 12.626 2.488 13.926 2.186.662-6.575-.865-11.508-4.541-14.666-3.521-3.023-8.431-3.892-11.93-4.087a34.3 34.3 0 0 0-6.754.293z" transform="translate(-3919.454 6173.714)"/>
        <path id="Path_318-2" data-name="Path 318" class="cls-2" d="M3950.369-6100.828h-.013a.79.79 0 0 1-.777-.8 133.644 133.644 0 0 0-1.657-24.05 92.5 92.5 0 0 0-4.235-16.458c-3.082-8.435-6.242-12.354-6.274-12.392a.791.791 0 0 1 .111-1.112.791.791 0 0 1 1.112.112c.136.166 3.362 4.165 6.535 12.849a94 94 0 0 1 4.31 16.741 135.2 135.2 0 0 1 1.679 24.336.79.79 0 0 1-.791.774z" transform="translate(-3912.97 6167.524)"/>
        <path id="Path_320" data-name="Path 320" class="cls-2" d="M3941.775-6150.39h-4.268a.79.79 0 0 1-.791-.79.79.79 0 0 1 .791-.791h4.268a.79.79 0 0 1 .791.791.79.79 0 0 1-.791.79z" transform="translate(-3913.271 6169.761)"/>
        <path id="Path_321" data-name="Path 321" class="cls-2" d="M3939.887-6149.271a.79.79 0 0 1-.791-.79v-5.441a.79.79 0 0 1 .791-.79.79.79 0 0 1 .79.79v5.441a.79.79 0 0 1-.79.79z" transform="translate(-3911.888 6167.25)"/>
        <path id="Path_322" data-name="Path 322" class="cls-1" d="M3943.6-6140.2a9.49 9.49 0 0 1-6.166-2.2c-4.006-3.354-5.631-10.112-4.832-20.087l.042-.524.5-.165c.2-.065.344-.114 1.739.339a28.621 28.621 0 0 1 3.017 1.178 22.694 22.694 0 0 1 7.494 5.293 12.467 12.467 0 0 1 3.093 6.4 15.055 15.055 0 0 1-1.6 8.77l-1.427-.681c1.961-4.111 2.1-7.83.41-11.053-1.669-3.186-4.847-5.347-7.218-6.6a27.061 27.061 0 0 0-4.54-1.893 35.878 35.878 0 0 0 .857 11.884 11.687 11.687 0 0 0 3.481 5.928 8.177 8.177 0 0 0 6.8 1.663l.4 1.528a8.715 8.715 0 0 1-2.05.22z" transform="translate(-3915.774 6163.225)"/>
        <path id="Path_323" data-name="Path 323" class="cls-2" d="M3945.728-6133.725a.791.791 0 0 1-.306-.062.791.791 0 0 1-.422-1.035c.234-.556 5.768-13.657 8.973-17.709a.789.789 0 0 1 1.11-.13.79.79 0 0 1 .129 1.11c-3.073 3.885-8.7 17.208-8.756 17.342a.79.79 0 0 1-.728.484z" transform="translate(-3908.496 6169.259)"/>
        <path id="Path_324" data-name="Path 324" class="cls-2" d="M3954.271-6145.519h-5.953a.79.79 0 0 1-.791-.79.79.79 0 0 1 .791-.791h5.953a.79.79 0 0 1 .79.791.79.79 0 0 1-.79.79z" transform="translate(-3906.991 6172.591)"/>
        <path id="Union_8" data-name="Union 8" class="cls-1" d="M-3323.1 7723.23a1.583 1.583 0 0 0 1.58-1.583v-3.16h3.163a1.58 1.58 0 0 0 1.58-1.584 1.58 1.58 0 0 0-1.58-1.58h-3.163v-3.16a1.583 1.583 0 0 0-1.58-1.583 1.583 1.583 0 0 0-1.58 1.583v3.16h-3.163a1.581 1.581 0 0 0-1.58 1.58 1.581 1.581 0 0 0 1.58 1.584h3.163v3.16a1.583 1.583 0 0 0 1.58 1.583m0 1.58a3.166 3.166 0 0 1-3.161-3.163v-1.58h-1.582a3.166 3.166 0 0 1-3.157-3.167 3.164 3.164 0 0 1 3.161-3.16h1.582v-1.58a3.166 3.166 0 0 1 3.157-3.16 3.166 3.166 0 0 1 3.161 3.164v1.58h1.582a3.164 3.164 0 0 1 3.161 3.16 3.166 3.166 0 0 1-3.161 3.164h-1.582v1.58a3.166 3.166 0 0 1-3.161 3.162z" transform="translate(3378.606 -7673.867)"/>
        <path id="Union_9" data-name="Union 9" class="cls-1" d="M-3326.258 7716.9a.79.79 0 0 0 .792-.79v-1.582h1.58a.79.79 0 0 0 .79-.79.787.787 0 0 0-.79-.789h-1.58v-1.582a.79.79 0 0 0-.792-.789.79.79 0 0 0-.79.789v1.582h-1.579a.79.79 0 0 0-.793.789.793.793 0 0 0 .793.79h1.579v1.582a.79.79 0 0 0 .79.79m0 1.581a2.373 2.373 0 0 1-2.371-2.371 2.375 2.375 0 0 1-2.372-2.371 2.374 2.374 0 0 1 2.372-2.37 2.373 2.373 0 0 1 2.371-2.37 2.374 2.374 0 0 1 2.373 2.37 2.373 2.373 0 0 1 2.369 2.37 2.373 2.373 0 0 1-2.369 2.371 2.375 2.375 0 0 1-2.373 2.375z" transform="translate(3331.181 -7700.108)"/>
    </g>
</svg>
