<svg xmlns="http://www.w3.org/2000/svg" width="29.349" height="23.785" viewBox="0 0 29.349 23.785">
    <g data-name="Group 721">
        <g data-name="Group 600">
            <path data-name="Path 1977" d="M1027.937 137.791v6c-.019.089-.045.177-.056.267a5.773 5.773 0 0 1-2.1 3.871 18.306 18.306 0 0 1-7.766 3.7 21.366 21.366 0 0 1-7.009.4 19.826 19.826 0 0 1-9.566-3.545 6.269 6.269 0 0 1-2.85-5.573c.035-1.4.025-2.8 0-4.206a7.874 7.874 0 0 1 2.342-5.8 13.693 13.693 0 0 1 5.557-3.414 20.891 20.891 0 0 1 10.888-.721 16.13 16.13 0 0 1 6.922 2.971 8.992 8.992 0 0 1 3.244 4.3 17.29 17.29 0 0 1 .394 1.75zm-14.44-7.824a18.617 18.617 0 0 0-7.568 1.448 10.671 10.671 0 0 0-4.448 3.294 5.474 5.474 0 0 0-.563 6.283 8.223 8.223 0 0 0 2.657 2.846 15.383 15.383 0 0 0 6.582 2.512 19.266 19.266 0 0 0 9.337-.769 11.933 11.933 0 0 0 5.238-3.328 5.678 5.678 0 0 0 .2-7.7 10.158 10.158 0 0 0-3.281-2.635 17.551 17.551 0 0 0-8.151-1.95zm.582 18.292v2.328l3.02-.347v-1.055c0-.558.3-.917.775-.927s.8.36.8.932v.7c.93-.363 1.777-.7 2.632-1.021a.537.537 0 0 0 .417-.635c-.036-.378-.008-.762-.008-1.143v-.705a15.717 15.717 0 0 1-3.732 1.266c-1.283.242-2.577.404-3.905.607zm-4.629-.377v2.362l3 .341V148.2zm-4.638-1.428c0 .686-.005 1.384.008 2.082a.321.321 0 0 0 .176.211c.41.192.822.383 1.244.543.514.2 1.04.359 1.609.553 0-.787 0-1.505-.007-2.224 0-.06-.1-.147-.166-.172-.941-.331-1.884-.654-2.865-.993zm-1.582 1.277c0-.712.007-1.408-.009-2.1 0-.083-.113-.183-.2-.24a11.746 11.746 0 0 1-2.679-2.4.875.875 0 0 0-.136-.11c-.161 2.388 1.094 3.771 3.023 4.851zm20.07.023c2.095-1.1 3.517-3.455 2.97-4.88a11.622 11.622 0 0 1-2.836 2.56.315.315 0 0 0-.128.219c-.006.688-.006 1.376-.006 2.102z" transform="translate(-998.588 -128.372)" style="fill:#0c907e"/>
            <path data-name="Path 1978" d="M1051.079 175.879a.825.825 0 0 1-.665.784c-.886.3-1.786.566-2.642.934a7.584 7.584 0 0 0-2.949 2.139 6.74 6.74 0 0 0-.68 1.061.818.818 0 0 1-1.09.465.8.8 0 0 1-.355-1.125 7.5 7.5 0 0 1 2.832-3.111 14.2 14.2 0 0 1 4.5-1.9.791.791 0 0 1 1.049.753z" transform="translate(-1039.868 -172.192)" style="fill:#0c907e"/>
        </g>
        <path data-name="Path 1979" d="m-7880.938-10730.562-6.009 3.4 4.044 2.482 5.63-3.191 3.183 2.058" transform="translate(7896 10737.127)" style="fill:none;stroke:#14907e;stroke-linecap:round;stroke-linejoin:round;stroke-width:1.6px"/>
    </g>
</svg>
